HIERARCHY
ROOT Hips
{
 OFFSET 0.000000 0.000000 0.000000
 CHANNELS 6 Xposition Yposition Zposition Yrotation Xrotation Zrotation
 JOINT Chest
 {
  OFFSET 0.000000 9.585900 0.002600
  CHANNELS 3 Yrotation Xrotation Zrotation
  JOINT Chest2
  {
   OFFSET 0.000000 9.601200 -0.005300
   CHANNELS 3 Yrotation Xrotation Zrotation
   JOINT Chest3
   {
    OFFSET 0.000000 9.561800 0.000000
    CHANNELS 3 Yrotation Xrotation Zrotation
    JOINT Chest4
    {
     OFFSET 0.000000 9.552100 0.000000
     CHANNELS 3 Yrotation Xrotation Zrotation
     JOINT Neck
     {
      OFFSET 0.000000 14.453000 0.000000
      CHANNELS 3 Yrotation Xrotation Zrotation
      JOINT Head
      {
       OFFSET 0.000000 8.936500 -0.011300
       CHANNELS 3 Yrotation Xrotation Zrotation
       End Site
       {
        OFFSET 0.000000 17.073600 -0.006000
       }
      }
     }
     JOINT RightCollar
     {
      OFFSET -2.921100 9.558500 0.000000
      CHANNELS 3 Yrotation Xrotation Zrotation
      JOINT RightShoulder
      {
       OFFSET -13.519700 0.000000 0.000000
       CHANNELS 3 Yrotation Xrotation Zrotation
       JOINT RightElbow
       {
        OFFSET 0.000000 -29.696600 0.000000
        CHANNELS 3 Yrotation Xrotation Zrotation
        JOINT RightWrist
        {
         OFFSET 0.000000 -24.004700 0.000000
         CHANNELS 3 Yrotation Xrotation Zrotation
         End Site
         {
          OFFSET 0.000000 -17.728500 0.000000
         }
        }
       }
      }
     }
     JOINT LeftCollar
     {
      OFFSET 2.921100 9.558500 0.000000
      CHANNELS 3 Yrotation Xrotation Zrotation
      JOINT LeftShoulder
      {
       OFFSET 13.519700 0.000000 0.000000
       CHANNELS 3 Yrotation Xrotation Zrotation
       JOINT LeftElbow
       {
        OFFSET 0.000000 -29.696600 0.000000
        CHANNELS 3 Yrotation Xrotation Zrotation
        JOINT LeftWrist
        {
         OFFSET 0.000000 -24.004700 0.000000
         CHANNELS 3 Yrotation Xrotation Zrotation
         End Site
         {
          OFFSET 0.000000 -17.728500 0.000000
         }
        }
       }
      }
     }
    }
   }
  }
 }
 JOINT RightHip
 {
  OFFSET -7.771700 -0.012900 -0.001300
  CHANNELS 3 Yrotation Xrotation Zrotation
  JOINT RightKnee
  {
   OFFSET 0.000000 -40.869800 0.001200
   CHANNELS 3 Yrotation Xrotation Zrotation
   JOINT RightAnkle
   {
    OFFSET 0.000000 -39.717900 0.002100
    CHANNELS 3 Yrotation Xrotation Zrotation
    JOINT RightToe
    {
     OFFSET 0.000000 -4.965400 11.033500
     CHANNELS 3 Yrotation Xrotation Zrotation
     End Site
     {
      OFFSET 0.000000 -1.423100 5.872300
     }
    }
   }
  }
 }
 JOINT LeftHip
 {
  OFFSET 7.771700 -0.012900 -0.001300
  CHANNELS 3 Yrotation Xrotation Zrotation
  JOINT LeftKnee
  {
   OFFSET 0.000000 -40.869800 0.001200
   CHANNELS 3 Yrotation Xrotation Zrotation
   JOINT LeftAnkle
   {
    OFFSET 0.000000 -39.717900 0.002100
    CHANNELS 3 Yrotation Xrotation Zrotation
    JOINT LeftToe
    {
     OFFSET 0.000000 -4.965400 11.033500
     CHANNELS 3 Yrotation Xrotation Zrotation
     End Site
     {
      OFFSET 0.000000 -1.423100 5.872300
     }
    }
   }
  }
 }
}
MOTION
Frames: 9
Frame Time: 0.008333
-131.775808 57.965612 110.128508 175.898096 -31.832332 -1.514545 3.967986 20.214081 3.579203 0.454762 2.653686 0.393188 0.740283 4.310409 0.656042 3.345958 17.309782 3.081707 -2.458279 10.750738 -0.096907 -4.732677 -15.840044 0.932468 -0.998747 0.083003 -2.552189 -10.300439 -0.616210 -8.251000 164.867219 -59.249852 -150.568981 9.196656 -14.903480 -46.209005 6.774547 4.276770 6.750901 31.671177 4.347191 5.827677 128.968109 -58.606760 -159.737013 -3.293235 -2.576854 10.025452 7.428133 -43.772632 -4.514233 -11.093021 65.957464 -10.213113 8.268197 27.680591 2.635118 -0.738511 -18.640021 4.721880 -10.889588 -41.570453 3.531969 22.342409 65.976574 18.691721 -19.001136 9.044349 1.165614 0.005478 -0.069643 -0.114943
-131.770319 57.971413 110.126663 175.891983 -31.823695 -1.504435 3.998599 20.250141 3.576958 0.454007 2.649471 0.393772 0.740666 4.307318 0.655946 3.344182 17.296866 3.081144 -2.453260 10.713467 -0.101938 -4.737625 -15.968728 0.930676 -1.047856 0.096687 -2.547610 -10.459078 -0.521980 -8.127829 165.375626 -58.670393 -151.116194 9.178594 -14.816187 -46.246495 6.843650 4.321268 6.790943 31.882158 4.334032 5.896841 128.787807 -58.001609 -159.842620 -3.278142 -2.606102 10.037638 7.421025 -43.779435 -4.506817 -11.122051 65.963201 -10.248061 8.266606 27.663386 2.622495 -0.741902 -18.631584 4.724979 -10.875811 -41.578454 3.522262 22.338349 65.972508 18.692502 -19.010491 9.077661 1.194799 0.009582 -0.056347 -0.103970
-131.762924 57.977870 110.124423 175.878902 -31.812724 -1.498795 4.030581 20.271944 3.583246 0.453271 2.645568 0.393807 0.745323 4.312323 0.655075 3.400740 17.351901 3.070522 -2.491243 10.597676 -0.084249 -4.750646 -16.093396 0.928972 -1.189766 0.112159 -2.524542 -10.580771 -0.487567 -7.996694 165.904342 -58.064462 -151.677418 9.150768 -14.718185 -46.283487 6.863892 4.289569 6.854694 32.112891 4.323605 5.976276 128.611112 -57.372239 -159.973206 -3.261569 -2.647140 10.057500 7.395403 -43.784190 -4.473572 -11.142671 65.963692 -10.287940 8.258284 27.618664 2.621204 -0.723564 -18.598273 4.709597 -10.864049 -41.588319 3.521749 22.362284 65.965323 18.727551 -19.035458 9.124695 1.229815 0.019073 -0.069173 -0.117638
-131.756129 57.984490 110.122113 175.875775 -31.796341 -1.493269 4.050892 20.287881 3.585628 0.452073 2.641566 0.393460 0.749101 4.316491 0.654526 3.414209 17.358137 3.068147 -2.491891 10.525390 -0.097465 -4.769555 -16.209956 0.926377 -1.282049 0.183274 -2.526261 -10.715518 -0.445300 -7.880601 166.458570 -57.431797 -152.252137 9.117951 -14.613227 -46.314846 6.918488 4.307650 6.905980 32.360423 4.311892 6.069159 128.468469 -56.726428 -160.141698 -3.242810 -2.694874 10.083732 7.377216 -43.793776 -4.456075 -11.158249 65.962718 -10.317457 8.249766 27.592064 2.624458 -0.726854 -18.578707 4.699530 -10.859733 -41.598287 3.520294 22.356085 65.958319 18.724569 -19.036627 9.135607 1.234892 0.016579 -0.063427 -0.109702
-131.748528 57.991190 110.119890 175.868237 -31.776403 -1.490715 4.069874 20.293642 3.593659 0.448652 2.629453 0.390750 0.757802 4.334677 0.657230 3.412449 17.344838 3.064050 -2.486964 10.480177 -0.110005 -4.779343 -16.330172 0.909046 -1.337601 0.251414 -2.529850 -10.872712 -0.371432 -7.791725 167.045849 -56.776033 -152.838019 9.079543 -14.498701 -46.337208 6.981991 4.341469 6.957260 32.620649 4.293843 6.175007 128.375870 -56.076403 -160.350146 -3.219756 -2.745866 10.112235 7.365943 -43.806691 -4.440376 -11.159115 65.958015 -10.328502 8.249265 27.574917 2.642574 -0.724661 -18.565602 4.677874 -10.858435 -41.615705 3.526312 22.379935 65.953008 18.753319 -19.049545 9.163248 1.249520 0.019984 -0.076123 -0.115651
-131.742718 57.998491 110.116463 175.863285 -31.762438 -1.480859 4.080085 20.306179 3.594385 0.448223 2.617579 0.386492 0.762983 4.351662 0.662532 3.412769 17.332760 3.058421 -2.484522 10.434779 -0.122412 -4.787407 -16.446751 0.882313 -1.385390 0.317324 -2.535857 -11.035801 -0.291750 -7.724985 167.679603 -56.110327 -153.447579 9.028998 -14.380975 -46.345514 7.037610 4.368573 7.008471 32.896791 4.264319 6.293840 128.321669 -55.433742 -160.586585 -3.189791 -2.800312 10.139919 7.360424 -43.812898 -4.435701 -11.171643 65.957404 -10.348665 8.245379 27.553535 2.655405 -0.713717 -18.552564 4.655274 -10.857071 -41.626010 3.513471 22.405379 65.936257 18.788124 -19.077824 9.213300 1.284377 0.021744 -0.066982 -0.115699
-131.736485 58.005821 110.112932 175.862198 -31.750299 -1.479913 4.089804 20.320374 3.605367 0.448072 2.619450 0.383645 0.762986 4.345884 0.663449 3.426079 17.346937 3.060782 -2.491409 10.370913 -0.137249 -4.795205 -16.560026 0.847863 -1.435622 0.363817 -2.548393 -11.201770 -0.211210 -7.680775 168.371625 -55.446989 -154.096013 8.962035 -14.271342 -46.337123 7.077460 4.368335 7.051686 33.189069 4.226145 6.431774 128.291840 -54.800384 -160.839432 -3.150287 -2.860625 10.163800 7.329109 -43.817451 -4.410417 -11.167158 65.951145 -10.365309 8.249148 27.543924 2.671000 -0.711827 -18.547313 4.636972 -10.860518 -41.636713 3.512285 22.414028 65.932125 18.800988 -19.079201 9.247806 1.306267 0.023367 -0.093828 -0.135504
-131.731693 58.012194 110.110558 175.854612 -31.732121 -1.473253 4.099998 20.315554 3.608324 0.460849 2.655552 0.398057 0.746949 4.303767 0.646590 3.444858 17.370796 3.074466 -2.498944 10.313515 -0.157540 -4.804818 -16.670002 0.809271 -1.480703 0.412658 -2.568276 -11.370576 -0.131635 -7.660018 169.122484 -54.788452 -154.785668 8.881437 -14.173912 -46.318164 7.107238 4.361576 7.086201 33.497416 4.181007 6.594721 128.278050 -54.178904 -161.097599 -3.103200 -2.929389 10.184429 7.323007 -43.834929 -4.405296 -11.149896 65.952025 -10.357242 8.249995 27.549438 2.676756 -0.711922 -18.554543 4.628699 -10.856015 -41.654800 3.511539 22.417525 65.929844 18.807546 -19.082644 9.283041 1.326682 0.013269 -0.098053 -0.130686
-131.730087 58.016018 110.111638 175.858014 -31.691638 -1.461476 4.097363 20.289813 3.599180 0.457866 2.648945 0.395336 0.758552 4.327899 0.657662 3.470234 17.397821 3.097159 -2.532612 10.234693 -0.188936 -4.811613 -16.780066 0.763994 -1.540879 0.427742 -2.602524 -11.543536 -0.054546 -7.662371 169.920023 -54.135393 -155.505270 8.792470 -14.092445 -46.297919 7.096875 4.316954 7.097421 33.827760 4.123185 6.784654 128.271412 -53.577096 -161.345716 -3.052687 -3.005930 10.208952 7.313003 -43.877166 -4.416376 -11.105283 65.953228 -10.334887 8.251467 27.567862 2.714143 -0.712929 -18.570519 4.599030 -10.858189 -41.695345 3.496214 22.434523 65.914987 18.830959 -19.084834 9.320222 1.340501 0.020676 -0.063712 -0.099347
